<svg width="227" height="36" viewBox="0 0 227 36" fill="none" xmlns="http://www.w3.org/2000/svg">
<path d="M30.1072 17.9C30.1072 27.1 25.3192 35.4 15.157 35.4C5.87425 35.4 0.5 27.8 0.5 18.1C0.5 8.6 5.67882 0.799999 15.4502 0.799999C24.5375 0.799999 30.1072 8.1 30.1072 17.9ZM3.23598 18C3.23598 25.7 7.43766 33 15.2547 33C23.7558 33 27.2735 25.9 27.2735 17.9C27.2735 10.1 23.2673 3.2 15.3525 3.2C6.94909 3.2 3.23598 10.4 3.23598 18Z" fill="#5474B8"/>
<path d="M37.338 1.3H39.8786V18.8C42.5169 16.2 51.8974 7.2 57.7602 1.3H61.1802L46.4254 15.6L61.9619 34.9H58.835L44.5689 17.3L39.8786 21.5V34.9H37.338V1.3Z" fill="#5474B8"/>
<path d="M69.4858 23.3L65.2841 34.9H62.7435L74.7623 1.3H77.7914L90.3965 34.9H87.6605L83.3611 23.3H69.4858ZM82.4817 20.9C78.8663 10.9 76.912 6.1 76.3257 3.9C75.544 6.4 73.3943 12.4 70.4629 20.9H82.4817Z" fill="#5474B8"/>
<path d="M103.392 34.9V22.3C103.392 22 103.295 21.7 103.197 21.5L91.4713 1.3H94.4027C97.725 7 103.392 16.9 104.858 19.4C106.226 16.9 111.991 7.1 115.509 1.3H118.343L106.128 21.7C106.031 21.9 106.031 22.1 106.031 22.4V34.9H103.392Z" fill="#5474B8"/>
<path d="M159.871 25.9C158.307 31.2 154.497 35.3 147.559 35.3C138.178 35.3 133.195 27.6 133.195 18.2C133.195 9.1 138.081 0.900002 147.657 0.900002C154.692 0.900002 158.894 4.9 159.969 10.5H157.428C155.962 6.1 153.129 3.3 147.461 3.3C139.253 3.3 135.833 10.9 135.833 18.2C135.833 25.4 139.253 33 147.559 33C152.933 33 155.669 30.2 157.233 26H159.871V25.9Z" fill="#E94E50"/>
<path d="M194.95 19.5C194.95 12.9 194.95 6.6 195.145 3.3H195.048C193.777 7.8 187.035 24.4 182.931 35H180.488C177.362 26.8 170.424 8.4 168.958 3.3H168.86C169.056 7.1 169.154 15 169.154 20.7V35H166.613V1.3H170.424C174.919 12.8 180.586 27.9 181.856 31.7H181.954C182.736 29.3 189.283 12.5 193.875 1.3H197.588V34.9H195.048V19.5H194.95Z" fill="#E94E50"/>
<path d="M206.871 25.9C207.848 30.4 210.78 33 216.154 33C222.114 33 224.46 29.9 224.46 26.3C224.46 22.5 222.798 20.2 215.568 18.3C208.63 16.5 205.601 14.2 205.601 9.4C205.601 5 208.728 0.900002 215.763 0.900002C222.994 0.900002 226.023 5.4 226.414 9.5H223.776C222.994 5.9 220.746 3.3 215.568 3.3C210.877 3.3 208.239 5.6 208.239 9.3C208.239 13 210.389 14.4 216.447 16C225.73 18.4 227 22.1 227 26.2C227 31.1 223.482 35.4 215.861 35.4C207.653 35.4 204.624 30.5 204.037 26H206.871V25.9Z" fill="#E94E50"/>
</svg>
