<svg width="67" height="86" viewBox="0 0 67 86" fill="none" xmlns="http://www.w3.org/2000/svg">
<path d="M47.9 20.9C51 22.3 53.9 24.1 56.4 26.4L66.6 15V0L47.9 20.9Z" fill="#E94E50"/>
<path d="M18.7 20.9L0 0V15L10.1 26.3C12.7 24.1 15.6 22.3 18.7 20.9Z" fill="#E94E50"/>
<path d="M7.60001 33H16.1H16.9H23C26.1 31.4 29.6 30.6 33.2 30.6C36.9 30.6 40.4 31.5 43.4 33H49.5H50.3H58.8C57.5 31.3 56 29.8 54.4 28.4C51.8 26.2 48.9 24.4 45.8 23.1C41.9 21.5 37.7 20.6 33.2 20.6C28.7 20.6 24.5 21.5 20.6 23.1C17.4 24.4 14.5 26.2 12 28.4C10.4 29.8 8.90001 31.3 7.60001 33Z" fill="#5474B8"/>
<path d="M55.5 48.7C55.8 50.2 56 51.7 56 53.3C56 65.8 45.8 76 33.3 76C20.8 76 10.6 65.8 10.6 53.3C10.6 51.7 10.8 50.2 11.1 48.7H0.900006C0.700006 50.2 0.600006 51.7 0.600006 53.3C0.600006 71.3 15.3 86 33.3 86C51.3 86 66 71.3 66 53.3C66 51.7 65.9 50.2 65.7 48.7H55.5Z" fill="#5474B8"/>
<path d="M42.8 35.8H23.7H18.7H5.59999C3.69999 38.8 2.29999 42.2 1.39999 45.8H11.8H14.8H51.6H54.6H65C64.2 42.2 62.7 38.8 60.8 35.8H47.8H42.8Z" fill="#E94E50"/>
</svg>
