<svg width="314" height="86" viewBox="0 0 314 86" fill="none" xmlns="http://www.w3.org/2000/svg">
<g clip-path="url(#clip0_1_2)">
<path d="M113.107 52.9C113.107 62.1 108.319 70.4 98.157 70.4C88.8742 70.4 83.5 62.8 83.5 53.1C83.5 43.6 88.6788 35.8 98.4502 35.8C107.538 35.8 113.107 43.1 113.107 52.9ZM86.236 53C86.236 60.7 90.4377 68 98.2547 68C106.756 68 110.274 60.9 110.274 52.9C110.274 45.1 106.267 38.2 98.3525 38.2C89.9491 38.2 86.236 45.4 86.236 53Z" fill="#5474B8"/>
<path d="M120.338 36.3H122.879V53.8C125.517 51.2 134.897 42.2 140.76 36.3H144.18L129.425 50.6L144.962 69.9H141.835L127.569 52.3L122.879 56.5V69.9H120.338V36.3Z" fill="#5474B8"/>
<path d="M152.486 58.3L148.284 69.9H145.744L157.762 36.3H160.791L173.396 69.9H170.66L166.361 58.3H152.486ZM165.482 55.9C161.866 45.9 159.912 41.1 159.326 38.9C158.544 41.4 156.394 47.4 153.463 55.9H165.482Z" fill="#5474B8"/>
<path d="M186.392 69.9V57.3C186.392 57 186.295 56.7 186.197 56.5L174.471 36.3H177.403C180.725 42 186.392 51.9 187.858 54.4C189.226 51.9 194.991 42.1 198.509 36.3H201.343L189.128 56.7C189.031 56.9 189.031 57.1 189.031 57.4V69.9H186.392Z" fill="#5474B8"/>
<path d="M242.871 60.9C241.307 66.2 237.497 70.3 230.559 70.3C221.178 70.3 216.195 62.6 216.195 53.2C216.195 44.1 221.081 35.9 230.657 35.9C237.692 35.9 241.894 39.9 242.969 45.5H240.428C238.962 41.1 236.129 38.3 230.461 38.3C222.253 38.3 218.833 45.9 218.833 53.2C218.833 60.4 222.253 68 230.559 68C235.933 68 238.669 65.2 240.233 61H242.871V60.9Z" fill="#E94E50"/>
<path d="M277.95 54.5C277.95 47.9 277.95 41.6 278.145 38.3H278.048C276.777 42.8 270.035 59.4 265.931 70H263.488C260.362 61.8 253.424 43.4 251.958 38.3H251.86C252.056 42.1 252.154 50 252.154 55.7V70H249.613V36.3H253.424C257.919 47.8 263.586 62.9 264.856 66.7H264.954C265.736 64.3 272.283 47.5 276.875 36.3H280.588V69.9H278.048V54.5H277.95Z" fill="#E94E50"/>
<path d="M289.871 60.9C290.848 65.4 293.78 68 299.154 68C305.114 68 307.46 64.9 307.46 61.3C307.46 57.5 305.798 55.2 298.568 53.3C291.63 51.5 288.601 49.2 288.601 44.4C288.601 40 291.728 35.9 298.763 35.9C305.994 35.9 309.023 40.4 309.414 44.5H306.776C305.994 40.9 303.746 38.3 298.568 38.3C293.877 38.3 291.239 40.6 291.239 44.3C291.239 48 293.389 49.4 299.447 51C308.73 53.4 310 57.1 310 61.2C310 66.1 306.482 70.4 298.861 70.4C290.653 70.4 287.624 65.5 287.037 61H289.871V60.9Z" fill="#E94E50"/>
<path d="M47.9 20.9C51 22.3 53.9 24.1 56.4 26.4L66.6 15V0L47.9 20.9Z" fill="#E94E50"/>
<path d="M18.7 20.9L0 0V15L10.1 26.3C12.7 24.1 15.6 22.3 18.7 20.9Z" fill="#E94E50"/>
<path d="M7.60001 33H16.1H16.9H23C26.1 31.4 29.6 30.6 33.2 30.6C36.9 30.6 40.4 31.5 43.4 33H49.5H50.3H58.8C57.5 31.3 56 29.8 54.4 28.4C51.8 26.2 48.9 24.4 45.8 23.1C41.9 21.5 37.7 20.6 33.2 20.6C28.7 20.6 24.5 21.5 20.6 23.1C17.4 24.4 14.5 26.2 12 28.4C10.4 29.8 8.90001 31.3 7.60001 33Z" fill="#5474B8"/>
<path d="M55.5 48.7C55.8 50.2 56 51.7 56 53.3C56 65.8 45.8 76 33.3 76C20.8 76 10.6 65.8 10.6 53.3C10.6 51.7 10.8 50.2 11.1 48.7H0.900006C0.700006 50.2 0.600006 51.7 0.600006 53.3C0.600006 71.3 15.3 86 33.3 86C51.3 86 66 71.3 66 53.3C66 51.7 65.9 50.2 65.7 48.7H55.5Z" fill="#5474B8"/>
<path d="M42.8 35.8H23.7H18.7H5.59999C3.69999 38.8 2.29999 42.2 1.39999 45.8H11.8H14.8H51.6H54.6H65C64.2 42.2 62.7 38.8 60.8 35.8H47.8H42.8Z" fill="#E94E50"/>
</g>
<defs>
<clipPath id="clip0_1_2">
<rect width="313.7" height="85.9" fill="white"/>
</clipPath>
</defs>
</svg>
